<?xml version="1.0" encoding="UTF-8" standalone="no"?>
<!-- Created with Inkscape (http://www.inkscape.org/) -->

<svg
   version="1.1"
   id="svg1"
   width="666.66669"
   height="666.66669"
   viewBox="0 0 666.66669 666.66669"
   xmlns:inkscape="http://www.inkscape.org/namespaces/inkscape"
   xmlns:sodipodi="http://sodipodi.sourceforge.net/DTD/sodipodi-0.dtd"
   xmlns:xlink="http://www.w3.org/1999/xlink"
   xmlns="http://www.w3.org/2000/svg"
   xmlns:svg="http://www.w3.org/2000/svg">
  <defs
     id="defs1">
    <color-profile
       name="Adobe RGB (1998)"
       id="color-profile1" />
    <clipPath
       clipPathUnits="userSpaceOnUse"
       id="clipPath2">
      <path
         d="M 105.952,393.258 H 417.607 V 75.9763 H 105.952 Z"
         transform="translate(-254.80821,-333.12471)"
         id="path2" />
    </clipPath>
    <clipPath
       clipPathUnits="userSpaceOnUse"
       id="clipPath4">
      <path
         d="M 0,500 H 500 V 0 H 0 Z"
         transform="matrix(1.3333333,0,0,-1.3333333,0,666.66667)"
         id="path4" />
    </clipPath>
    <clipPath
       clipPathUnits="userSpaceOnUse"
       id="clipPath6">
      <path
         d="M 0,500 H 500 V 0 H 0 Z"
         transform="translate(-246.87861,-347.04021)"
         id="path6" />
    </clipPath>
    <clipPath
       clipPathUnits="userSpaceOnUse"
       id="clipPath7">
      <path
         d="M 98.0219,407.173 H 409.677 V 89.8919 H 98.0219 Z"
         transform="translate(-259.31901,-351.78631)"
         id="path7" />
    </clipPath>
    <clipPath
       clipPathUnits="userSpaceOnUse"
       id="clipPath9">
      <path
         d="M 0,500 H 500 V 0 H 0 Z"
         transform="matrix(1.3333333,0,0,-1.3333333,0,666.66667)"
         id="path9" />
    </clipPath>
  </defs>
  <sodipodi:namedview
     id="namedview1"
     pagecolor="#ffffff"
     bordercolor="#000000"
     borderopacity="0.25"
     inkscape:showpageshadow="2"
     inkscape:pageopacity="0.0"
     inkscape:pagecheckerboard="0"
     inkscape:deskcolor="#d1d1d1">
    <inkscape:page
       x="0"
       y="0"
       inkscape:label="1"
       id="page1"
       width="666.66669"
       height="666.66669"
       margin="0"
       bleed="0" />
  </sodipodi:namedview>
  <g
     id="layer-MC0">
    <path
       id="path1"
       d="M 0,0 H 500 V 500 H 0 Z"
       style="fill:#0000;fill-opacity:1;fill-rule:nonzero;stroke:none"
       transform="matrix(1.3333333,0,0,-1.3333333,0,666.66667)" />
  </g>
  <g
     id="layer-MC1">
    <g
       opacity="0.5"
       id="g3"
       clip-path="url(#clipPath4)">
      <path
         d="M 0,0 C -0.016,0.031 -0.033,0.059 -0.046,0.09 -0.057,0.119 -0.03,0.064 0,0 m 155.599,-50.57 c -4.315,13.881 -10.583,27.132 -18.523,39.259 -7.943,12.126 -17.53,23.142 -28.404,32.664 C 86.926,40.402 59.885,53.261 31.522,57.974 17.345,60.324 2.906,60.773 -11.326,59.235 -25.556,57.708 -39.542,54.167 -52.738,48.8 -79.17,38.115 -102.317,19.997 -119.042,-2.67 c -8.389,-11.313 -15.205,-23.75 -20.135,-36.859 -2.491,-6.542 -4.492,-13.26 -6.044,-20.061 -1.52,-6.811 -2.572,-13.712 -3.131,-20.64 -1.126,-13.854 -0.372,-27.8 2.284,-41.333 2.695,-13.521 7.201,-26.624 13.473,-38.762 -10.614,25.176 -14.147,52.947 -10.388,79.499 0.932,6.638 2.334,13.192 4.17,19.609 1.827,6.417 4.055,12.711 6.742,18.794 5.343,12.178 12.314,23.592 20.665,33.834 8.355,10.236 18.038,19.338 28.72,26.977 10.689,7.634 22.39,13.762 34.642,18.247 12.255,4.489 25.103,7.215 38.05,8.178 C 2.95,45.816 16.028,45 28.704,42.499 41.383,39.975 53.687,35.742 65.178,29.927 c 11.5,-5.799 22.15,-13.217 31.63,-21.873 9.491,-8.646 17.79,-18.575 24.592,-29.417 6.786,-10.853 12.075,-22.607 15.715,-34.833 7.289,-24.451 7.561,-50.923 1.254,-75.55 -6.34,-24.642 -19.611,-47.377 -37.825,-65.075 -9.097,-8.856 -19.406,-16.458 -30.551,-22.519 -11.157,-6.035 -23.111,-10.591 -35.481,-13.432 -12.364,-2.844 -25.153,-3.979 -37.855,-3.405 -12.698,0.535 -25.303,2.818 -37.378,6.755 -6.038,1.969 -11.943,4.353 -17.66,7.13 -2.864,1.38 -5.666,2.886 -8.431,4.456 -1.363,0.818 -2.751,1.597 -4.097,2.442 l -3.885,2.496 c -2.675,1.787 -4.189,5.104 -3.808,8.23 0.09,0.798 0.265,1.505 0.605,2.331 l 1.928,4.579 3.978,9.431 15.915,37.722 15.828,37.76 15.8,37.773 15.715,37.811 7.853,18.907 3.433,8.322 c 0.413,1.001 1.817,1.037 2.281,0.06 l 9.043,-19.038 c 20.218,-42.399 40.557,-84.747 61.059,-127.024 -2.38,2.089 -4.806,4.124 -7.283,6.092 -8.533,6.765 -17.636,12.839 -27.333,17.803 -4.846,2.483 -9.848,4.663 -14.973,6.492 -5.141,1.792 -10.41,3.205 -15.759,4.139 -10.685,1.885 -25.607,3.213 -36.406,-0.838 0,0 53.55,4.2 110.208,-55.023 1.194,-1.249 3.231,-4.221 6.602,-3.199 2.805,0.85 2.882,5.124 2.039,7.094 l -0.063,0.146 C 70.37,-123.13 48.621,-73.039 26.725,-23.012 L 18.486,-4.264 14.364,5.109 13.849,6.281 13.685,6.645 C 13.548,6.923 13.405,7.208 13.253,7.47 12.951,7.992 12.607,8.502 12.216,8.988 10.652,10.948 8.357,12.392 5.97,12.957 3.577,13.543 1.06,13.376 -1.265,12.435 -3.59,11.519 -5.667,9.695 -6.899,7.573 -7.056,7.315 -7.205,7.037 -7.345,6.747 L -7.599,6.205 -7.86,5.621 -8.383,4.453 -9.428,2.118 l -2.091,-4.671 -4.181,-9.342 -8.318,-18.703 -16.626,-37.411 -16.541,-37.447 -16.513,-37.46 -16.426,-37.499 -4.106,-9.374 -2.11,-4.826 c -1,-2.309 -1.742,-4.925 -2.074,-7.512 -0.697,-5.212 0.077,-10.596 2.21,-15.372 2.115,-4.784 5.579,-8.977 9.847,-11.96 l 0.399,-0.28 0.293,-0.193 0.572,-0.373 1.144,-0.747 2.288,-1.49 c 1.535,-0.98 3.113,-1.892 4.669,-2.838 3.15,-1.828 6.348,-3.579 9.617,-5.191 6.529,-3.241 13.283,-6.035 20.198,-8.356 13.827,-4.64 28.312,-7.41 42.885,-8.035 14.556,-0.696 29.208,0.559 43.453,3.79 14.237,3.235 28.054,8.406 40.866,15.428 12.815,7.015 24.65,15.795 35.08,26.007 10.42,10.215 19.494,21.83 26.707,34.52 7.241,12.671 12.721,26.338 16.253,40.48 7.061,28.293 6.203,58.388 -2.468,86.167"
         style="fill:#fff;fill-opacity:1;fill-rule:nonzero;stroke:#fff"
         transform="matrix(1.3333333,0,0,-1.3333333,339.74427,222.5004)"
         clip-path="url(#clipPath2)"
         id="path3" />
    </g>
    <path
       id="path5"
       d="M 0,0 C -0.015,0.031 -0.033,0.059 -0.045,0.09 -0.056,0.119 -0.03,0.064 0,0 m 155.599,-50.57 c -4.315,13.881 -10.583,27.132 -18.523,39.259 -7.942,12.126 -17.53,23.142 -28.404,32.664 C 86.926,40.402 59.885,53.261 31.522,57.974 17.345,60.324 2.907,60.773 -11.326,59.235 -25.556,57.708 -39.542,54.167 -52.738,48.8 -79.17,38.115 -102.317,19.997 -119.042,-2.67 c -8.389,-11.313 -15.205,-23.75 -20.135,-36.859 -2.491,-6.542 -4.492,-13.26 -6.044,-20.061 -1.52,-6.811 -2.572,-13.712 -3.131,-20.64 -1.126,-13.854 -0.372,-27.801 2.284,-41.333 2.695,-13.52 7.202,-26.625 13.473,-38.762 -10.614,25.175 -14.147,52.948 -10.388,79.499 0.932,6.638 2.335,13.192 4.17,19.609 1.827,6.417 4.055,12.711 6.742,18.794 5.343,12.178 12.314,23.592 20.665,33.834 8.355,10.237 18.038,19.338 28.72,26.978 10.689,7.633 22.39,13.761 34.642,18.246 12.256,4.49 25.104,7.215 38.05,8.178 12.945,1.003 26.022,0.187 38.698,-2.314 12.679,-2.524 24.983,-6.757 36.474,-12.571 11.501,-5.8 22.15,-13.218 31.63,-21.874 9.491,-8.646 17.79,-18.575 24.592,-29.417 6.786,-10.853 12.075,-22.607 15.715,-34.833 7.29,-24.45 7.561,-50.924 1.254,-75.551 -6.34,-24.64 -19.611,-47.376 -37.825,-65.075 -9.097,-8.855 -19.406,-16.458 -30.551,-22.518 -11.157,-6.035 -23.111,-10.591 -35.481,-13.432 -12.364,-2.844 -25.153,-3.978 -37.855,-3.404 -12.698,0.535 -25.303,2.816 -37.378,6.754 -6.037,1.969 -11.942,4.352 -17.66,7.13 -2.864,1.38 -5.666,2.885 -8.431,4.457 -1.363,0.818 -2.751,1.596 -4.097,2.442 l -3.885,2.494 c -2.675,1.788 -4.189,5.105 -3.808,8.231 0.091,0.797 0.265,1.504 0.605,2.332 l 1.928,4.578 3.979,9.43 15.915,37.723 15.827,37.761 15.8,37.772 15.715,37.811 7.853,18.907 3.433,8.322 c 0.413,1.001 1.817,1.037 2.281,0.06 l 9.043,-19.038 c 20.219,-42.399 40.557,-84.746 61.059,-127.024 -2.38,2.089 -4.806,4.123 -7.283,6.092 -8.533,6.765 -17.636,12.839 -27.333,17.803 -4.846,2.482 -9.848,4.663 -14.973,6.492 -5.14,1.791 -10.41,3.204 -15.759,4.14 -10.685,1.883 -25.607,3.212 -36.406,-0.838 0,0 53.55,4.2 110.208,-55.024 1.194,-1.249 3.231,-4.221 6.602,-3.199 2.805,0.85 2.882,5.124 2.039,7.094 l -0.063,0.145 C 70.37,-123.13 48.621,-73.039 26.725,-23.012 L 18.486,-4.264 14.364,5.109 13.849,6.281 13.685,6.645 C 13.548,6.923 13.405,7.208 13.253,7.47 12.952,7.993 12.608,8.502 12.216,8.988 10.652,10.948 8.358,12.392 5.97,12.957 3.577,13.543 1.06,13.376 -1.265,12.435 -3.59,11.519 -5.667,9.695 -6.899,7.573 -7.056,7.315 -7.205,7.037 -7.345,6.748 L -7.599,6.205 -7.86,5.621 -8.383,4.453 -9.428,2.118 l -2.091,-4.671 -4.181,-9.342 -8.318,-18.703 -16.626,-37.41 -16.541,-37.449 -16.513,-37.46 -16.426,-37.498 -4.106,-9.374 -2.11,-4.826 c -1,-2.308 -1.742,-4.925 -2.074,-7.511 -0.697,-5.213 0.077,-10.596 2.21,-15.374 2.115,-4.783 5.579,-8.975 9.848,-11.958 l 0.398,-0.281 0.293,-0.192 0.572,-0.374 1.144,-0.746 2.288,-1.491 c 1.535,-0.981 3.113,-1.891 4.669,-2.838 3.151,-1.828 6.348,-3.578 9.617,-5.191 6.529,-3.241 13.283,-6.035 20.198,-8.355 13.827,-4.641 28.312,-7.41 42.885,-8.036 14.557,-0.697 29.208,0.558 43.453,3.791 14.237,3.234 28.054,8.406 40.866,15.427 12.815,7.014 24.65,15.795 35.08,26.006 10.42,10.216 19.494,21.831 26.707,34.522 7.241,12.671 12.721,26.337 16.253,40.478 7.061,28.293 6.203,58.389 -2.468,86.168"
       style="fill:#000;fill-opacity:1;fill-rule:nonzero;stroke:#000"
       transform="matrix(1.3333333,0,0,-1.3333333,329.17147,203.9464)"
       clip-path="url(#clipPath6)" />
    <g
       opacity="0.199997"
       id="g8"
       clip-path="url(#clipPath9)">
      <path
         d="m 0,0 c 0.46,-0.893 0.947,-1.796 1.126,-2.22 l 72.165,-171.408 c 0.296,-0.691 0.587,-1.949 0.716,-3.245 0.152,-1.534 -1.656,-2.455 -2.791,-1.41 -8.754,8.059 -20.617,19.108 -36.106,30.602 -37.365,27.729 -74.469,20.59 -74.469,20.59 0,0 51.941,4.072 107.638,-52.38 v 0.001 c 0.856,-0.868 1.713,-1.748 2.571,-2.645 1.194,-1.249 3.231,-4.221 6.601,-3.199 0.17,0.051 0.329,0.116 0.48,0.191 0.108,0.055 0.207,0.123 0.305,0.188 0.035,0.023 0.076,0.043 0.11,0.068 0.125,0.091 0.239,0.193 0.347,0.301 0.004,0.003 0.008,0.006 0.011,0.01 0.112,0.112 0.215,0.233 0.311,0.362 h 0.001 c 1.221,1.644 1.117,4.475 0.474,5.974 l -0.062,0.145 C 57.93,-127.876 36.181,-77.785 14.284,-27.758 L 6.046,-9.01 1.924,0.363 1.408,1.535 1.244,1.899 C 1.107,2.177 0.965,2.461 0.812,2.724 0.512,3.247 0.168,3.756 -0.225,4.242 -1.788,6.202 -4.082,7.646 -6.471,8.21 -8.864,8.797 -11.381,8.63 -13.705,7.688 -16.03,6.773 -18.108,4.949 -19.339,2.827 -19.496,2.569 -19.645,2.291 -19.785,2.001 l -0.255,-0.543 -0.261,-0.583 -0.522,-1.168 -1.046,-2.335 -2.09,-4.671 -4.182,-9.342 -8.317,-18.703 -16.626,-37.41 -16.541,-37.449 -16.513,-37.46 -16.426,-37.498 -4.106,-9.374 -2.11,-4.826 c -1.001,-2.308 -1.742,-4.925 -2.074,-7.512 -0.697,-5.212 0.076,-10.595 2.21,-15.373 2.115,-4.783 5.579,-8.975 9.847,-11.959 l 0.399,-0.28 0.293,-0.192 0.572,-0.374 1.143,-0.746 2.289,-1.492 c 1.534,-0.98 3.113,-1.89 4.669,-2.837 3.15,-1.829 6.348,-3.579 9.617,-5.191 6.529,-3.241 13.282,-6.035 20.198,-8.355 13.827,-4.641 28.312,-7.411 42.885,-8.036 14.556,-0.697 29.208,0.558 43.453,3.791 14.237,3.234 28.053,8.406 40.866,15.427 12.814,7.014 24.649,15.795 35.08,26.006 10.42,10.216 19.493,21.831 26.707,34.522 7.24,12.67 12.721,26.337 16.253,40.478 7.06,28.293 6.203,58.389 -2.469,86.168 -4.314,13.881 -10.583,27.131 -18.522,39.259 C 116.693,-3.931 107.105,7.084 96.231,16.607 74.485,35.656 47.444,48.515 19.082,53.228 4.904,55.578 -9.534,56.027 -23.766,54.489 -37.997,52.962 -51.982,49.421 -65.178,44.054 -91.61,33.369 -114.758,15.25 -131.482,-7.416 c -8.39,-11.313 -15.205,-23.751 -20.136,-36.859 -2.491,-6.542 -4.491,-13.26 -6.044,-20.061 -1.52,-6.811 -2.572,-13.712 -3.13,-20.64 -1.126,-13.854 -0.372,-27.801 2.283,-41.333 2.696,-13.521 7.202,-26.625 13.474,-38.762 0,0 -29.401,64.077 -2.686,120.013 5.75,12.042 12.191,24.341 20.185,35.12 15.935,21.597 38.991,38.86 64.175,49.041 12.574,5.114 25.899,8.488 39.459,9.943 13.56,1.465 28.317,1.037 41.826,-1.202 27.023,-4.491 51.789,-17.742 72.509,-35.893 10.36,-9.073 19.496,-19.568 27.064,-31.122 7.565,-11.556 13.537,-24.181 17.649,-37.407 8.261,-26.468 9.079,-55.144 2.351,-82.101 -3.365,-13.475 -8.588,-26.496 -15.486,-38.57 -6.873,-12.091 -15.518,-23.159 -25.447,-32.892 -9.938,-9.73 -21.214,-18.096 -33.424,-24.779 -12.208,-6.69 -25.373,-11.618 -38.938,-14.7 -13.573,-3.079 -27.534,-4.275 -41.403,-3.611 -13.885,0.596 -27.686,3.234 -40.861,7.656 -6.589,2.211 -13.024,4.873 -19.245,7.962 -3.115,1.535 -6.162,3.203 -9.164,4.946 -1.482,0.902 -2.986,1.769 -4.448,2.704 l -2.181,1.42 -1.089,0.711 -0.545,0.356 -0.279,0.184 -0.381,0.266 c -4.066,2.843 -7.367,6.838 -9.381,11.396 -1.162,2.6 -1.287,4.724 -1.058,6.994 0.343,3.38 1.286,6.671 2.633,9.79 L -18.372,0.298 c 0.92,2.149 3.247,5.07 5.462,5.942 2.215,0.898 3.862,0.733 5.486,0.426 C -7.185,6.62 -6.917,6.55 -6.633,6.459 -4.45,5.767 -3.039,4.607 -1.941,3.197 -1.424,2.532 -0.614,1.191 0,0"
         style="fill:#fff;fill-opacity:1;fill-rule:nonzero;stroke:#fff"
         transform="matrix(1.3333333,0,0,-1.3333333,345.75867,197.61827)"
         clip-path="url(#clipPath7)"
         id="path8" />
    </g>
  </g>
</svg>
